<svg xmlns="http://www.w3.org/2000/svg" viewBox="0 0 800 900"><style>.st0{fill:#333}</style><path class="st0" d="M324.9 183.5c-1.7-1.3-.1-5.3 1.4-6.6 17-15.1 21.4-18.9 38.2-34.1C402.1 108.7 444 78 484.3 46c2.4-1.9 4.7-4.3 7.8-5.2 5.3-1.6 18.6-1.6 17.9 13.2-.3 6.2-7.3 54.6-11.1 81.9-2.9 21.4-38.5 205.7-44.2 230.2-5.2 22.3-19.4 80.9-20.1 83.7 26.6-12.1 58.8-30.3 62.8-32.5.7-2.8 11.3-41 16.4-56.8 10.1-31.2 22.7-61.7 39.2-91.5 12.2-22 24.3-44 40-64.7 12.4-16.3 26.5-31.6 44.5-44.5 5.7-4.1 12.4-7.5 19.3-10.3 16.2-6.5 34.2-3 43.5 8.6 4 5 7.6 10.7 8.6 16.5 1.9 11.3 2.7 22.9 2.6 34.4-.1 16-3.4 31.9-8 47.7-6.8 23.6-19 45.6-34.1 66.8-27.4 38.3-76.9 79.2-119.4 107.9-1.7 7.3-10 47.6-13.5 63.8-5.5 24.9-10.6 49.9-15.7 74.8-1.8 8.5-3.4 17.1-5.1 25.6-.1.6-.4 1.4-.2 1.9.9 2.3 1.3 5.5 3.4 6.5 1.5.8 6-.7 8.3-2.2 7.4-4.7 14.3-9.8 21.5-14.8 1.5-1 3.2-2 5-2.8 12.9-6.3 23.8-3.9 29.3 6.8 3.2 6.3 5.4 12.9 8.1 19.3 5.1 11.8 11 23.3 20.6 33.3 10.4 10.9 24.9 15.1 42.2 15.7 22.9.7 40.6-8.6 58.1-18.7 2.7-1.6 5.5-3.2 8.4-4.4 3.6-1.5 7.8-1.5 10 1 1.7 1.9 2.3 5 1.8 7.5-.4 2.1-2.6 4.3-4.7 6-22.4 17.5-48.8 27.3-80.1 26.2-26.7-.9-46.5-11.2-59.4-28.7-7-9.5-12.3-19.9-18.4-29.9-.2-.3-.4-.7-.5-1.1-4.2-8.3-10.2-9.3-18.1-2.4-16.5 14.2-32.5 28.7-48.7 43.1l-2.7 2.4c-5.5 4.7-11.8 7.8-20.1 6.1-8.2-1.7-13-6.4-13.7-12.6-1.1-10.1-1.8-20.4-1-30.5 2-25.9 5.5-51.8 8.6-77.6 2.4-19.9 13.1-74.1 13.6-78.6-6.2 2.6-54.6 27.2-64.7 31.2-3.2 7.2-28.9 81-42.7 116.2-8.7 22.3-19 44-30.2 65.7-22.4 43.5-47.7 86-80.6 125.7-14.2 17.1-28.8 33.9-47.6 48.3-8.4 6.5-17.2 12.5-28 16.4-15 5.4-29.8 5.9-44.4.8-11.3-4-21.3-9.4-29.4-16.7-21.9-19.6-37.7-42.3-49.6-66.7-10.2-21-15.8-43.1-21-65.3-4.4-18.9-4-37.7.9-56.5 10.1-38.9 38.4-69.2 78.7-93.2 34.8-20.7 72.4-37.4 112.3-51.1 40.2-13.8 120-42.8 136.3-47.7 7.2-26.6 42.2-156.5 50.8-187.3 6.9-24.9 34-119.9 40.4-142.6 6.6-23.5 14-49.8 19.7-70.4 1.1-4.1-1.3-5.7-4.2-5.9-2.8-.1-7.7 4.3-10.3 6.2-26.8 20.5-51.7 41.9-78.3 62.5-25.3 19.6-35.3 26.8-61.7 44.9-.1 0-6.6 3.3-8.5 1.9zM80 703.5c1.8 7.2 4 20.4 8.4 33.2 8 23.6 17.9 46.7 31.9 68.5 8.5 13.1 17.6 26 31.6 36 10.1 7.2 19.6 7.4 30.1-.2 7.7-5.6 15.2-11.7 20.7-18.6 14.2-18.1 28.1-36.4 40.7-55.2 26.1-38.9 47.4-79.5 67.6-120.3 17-34.3 32.5-69.2 44-104.7 1.3-3.9 8.5-24.9 8.5-24.9S314 532.4 299.8 537c-22.3 7.3-44.3 15-66.5 22.5-32.9 11.2-64.9 23.7-94.4 40.3-43.6 24.7-63.6 57-58.9 103.7zm596.2-520.2c-.1-.3-.2-1.1-.4-1.9-.8-3.1-1.5-6.3-6-7.3s-8.3 1-11 3.6c-3.9 3.6-8.1 7.3-10.9 11.5-28.5 42-50.3 86.8-66.8 131.8-4 10.9-19.6 51.5-20.1 53.9 2.9-2 25.3-21.2 25.8-21.6 40.8-35.1 69.4-75.3 81.6-121.5 4.3-15.9 8.4-31.8 7.8-48.5z"/></svg>